<svg width="1em" height="1em" viewBox="0 0 20 20" fill="none" xmlns="http://www.w3.org/2000/svg">
<path d="M10.0003 1.66663C14.6028 1.66663 18.3337 5.39746 18.3337 9.99996C18.3337 14.6025 14.6028 18.3333 10.0003 18.3333C5.39783 18.3333 1.66699 14.6025 1.66699 9.99996C1.66699 5.39746 5.39783 1.66663 10.0003 1.66663ZM12.9462 6.98413L8.82116 11.1091L7.05449 9.34163C6.97712 9.2642 6.88526 9.20277 6.78415 9.16085C6.68304 9.11893 6.57466 9.09733 6.4652 9.09729C6.24414 9.09721 6.03211 9.18495 5.87574 9.34121C5.71937 9.49747 5.63148 9.70944 5.63141 9.9305C5.63133 10.1516 5.71907 10.3636 5.87533 10.52L8.17366 12.8183C8.25878 12.9035 8.35986 12.971 8.4711 13.0171C8.58234 13.0632 8.70158 13.0869 8.82199 13.0869C8.94241 13.0869 9.06164 13.0632 9.17288 13.0171C9.28413 12.971 9.3852 12.9035 9.47033 12.8183L14.1253 8.16329C14.2817 8.00693 14.3695 7.79485 14.3695 7.57371C14.3695 7.35257 14.2817 7.14049 14.1253 6.98413C13.969 6.82776 13.7569 6.73991 13.5357 6.73991C13.3146 6.73991 13.1025 6.82776 12.9462 6.98413Z" fill="currentColor"/>
</svg>
