<svg width="1em" height="1em" viewBox="0 0 24 24" fill="none" xmlns="http://www.w3.org/2000/svg">
<path fill-rule="evenodd" clip-rule="evenodd" d="M21.1922 5.465C21.3797 5.65252 21.485 5.90683 21.485 6.172C21.485 6.43716 21.3797 6.69147 21.1922 6.879L9.95019 18.122C9.84804 18.2242 9.72676 18.3053 9.59326 18.3606C9.45977 18.4159 9.31669 18.4444 9.17219 18.4444C9.0277 18.4444 8.88461 18.4159 8.75112 18.3606C8.61763 18.3053 8.49634 18.2242 8.39419 18.122L2.80819 12.536C2.71528 12.4431 2.64158 12.3328 2.5913 12.2114C2.54102 12.09 2.51514 11.9599 2.51514 11.8285C2.51514 11.6971 2.54102 11.567 2.5913 11.4456C2.64158 11.3242 2.71528 11.2139 2.80819 11.121C2.9011 11.0281 3.0114 10.9544 3.1328 10.9041C3.25419 10.8538 3.3843 10.8279 3.51569 10.8279C3.64709 10.8279 3.7772 10.8538 3.89859 10.9041C4.01998 10.9544 4.13028 11.0281 4.22319 11.121L9.17319 16.071L19.7772 5.465C19.9647 5.27753 20.219 5.17221 20.4842 5.17221C20.7494 5.17221 21.0047 5.27753 21.1922 5.465Z" fill="currentColor"/>
</svg>
