<svg width="24" height="24" viewBox="0 0 24 24" fill="none" xmlns="http://www.w3.org/2000/svg">
<path fill-rule="evenodd" clip-rule="evenodd" d="M10.7999 4.2C7.15482 4.2 4.1999 7.15492 4.1999 10.8C4.1999 14.4451 7.15482 17.4 10.7999 17.4C12.6227 17.4 14.2715 16.6623 15.4668 15.4669C16.6622 14.2716 17.3999 12.6228 17.3999 10.8C17.3999 7.15492 14.445 4.2 10.7999 4.2ZM2.3999 10.8C2.3999 6.16081 6.16071 2.4 10.7999 2.4C15.4391 2.4 19.1999 6.16081 19.1999 10.8C19.1999 12.795 18.5035 14.6287 17.342 16.0693L21.3363 20.0636C21.6878 20.4151 21.6878 20.9849 21.3363 21.3364C20.9848 21.6879 20.415 21.6879 20.0635 21.3364L16.0692 17.3421C14.6286 18.5036 12.7949 19.2 10.7999 19.2C6.16071 19.2 2.3999 15.4392 2.3999 10.8Z" fill="currentColor"/>
</svg>
