<svg width="24" height="24" viewBox="0 0 24 24" fill="none" xmlns="http://www.w3.org/2000/svg">
<path fill-rule="evenodd" clip-rule="evenodd" d="M8.28125 0.75C8.69546 0.75 9.03125 1.08579 9.03125 1.5V3H15.5312V1.5C15.5312 1.08579 15.867 0.75 16.2812 0.75C16.6955 0.75 17.0312 1.08579 17.0312 1.5V3H17.2812C19.4904 3 21.2812 4.79086 21.2812 7V8.08579C21.2812 8.351 21.1759 8.60536 20.9884 8.79289L8.57414 21.2071C8.38661 21.3946 8.13225 21.5 7.86704 21.5H7.28125C5.07211 21.5 3.28125 19.7091 3.28125 17.5V7C3.28125 4.79086 5.07211 3 7.28125 3H7.53125V1.5C7.53125 1.08579 7.86704 0.75 8.28125 0.75ZM15.2812 9.25C15.6955 9.25 16.0312 8.91421 16.0312 8.5C16.0312 8.08579 15.6955 7.75 15.2812 7.75H8.28125C7.86704 7.75 7.53125 8.08579 7.53125 8.5C7.53125 8.91421 7.86704 9.25 8.28125 9.25H15.2812ZM12.2812 13.25C12.6955 13.25 13.0312 12.9142 13.0312 12.5C13.0312 12.0858 12.6955 11.75 12.2812 11.75H8.28125C7.86704 11.75 7.53125 12.0858 7.53125 12.5C7.53125 12.9142 7.86704 13.25 8.28125 13.25H12.2812ZM10.0312 16.5C10.0312 16.9142 9.69546 17.25 9.28125 17.25H8.28125C7.86704 17.25 7.53125 16.9142 7.53125 16.5C7.53125 16.0858 7.86704 15.75 8.28125 15.75H9.28125C9.69546 15.75 10.0312 16.0858 10.0312 16.5ZM20.791 12.9902C20.1374 12.3366 19.0776 12.3366 18.4239 12.9902L13.4091 18.005C13.2885 18.1257 13.2006 18.2751 13.1538 18.4392L12.5277 20.6357C12.4202 21.0127 12.7686 21.3611 13.1456 21.2536L15.342 20.6274C15.5061 20.5806 15.6556 20.4928 15.7762 20.3721L20.791 15.3573C21.4447 14.7037 21.4447 13.6439 20.791 12.9902Z" fill="currentColor"/>
</svg>
