<svg width="1em" height="1em" viewBox="0 0 16 16" fill="none" xmlns="http://www.w3.org/2000/svg">
<path fill-rule="evenodd" clip-rule="evenodd" d="M14.3996 8.0001C14.3996 11.5347 11.5342 14.4001 7.99961 14.4001C4.46499 14.4001 1.59961 11.5347 1.59961 8.0001C1.59961 4.46548 4.46499 1.6001 7.99961 1.6001C11.5342 1.6001 14.3996 4.46548 14.3996 8.0001ZM13.1996 8.0001C13.1996 10.872 10.8715 13.2001 7.99961 13.2001C5.12773 13.2001 2.79961 10.872 2.79961 8.0001C2.79961 6.52541 3.41347 5.1941 4.39961 4.24776V4.60599C4.39961 5.34859 4.69461 6.06078 5.21971 6.58588L6.63392 8.0001L6.39961 8.23441C6.08719 8.54683 6.08719 9.05336 6.39961 9.36578L7.24814 10.2143C7.47318 10.4394 7.59961 10.7446 7.59961 11.0628V11.3529C7.59961 11.6559 7.77081 11.9329 8.04184 12.0684L8.26295 12.179C8.65814 12.3766 9.13867 12.2164 9.33627 11.8212L10.4995 9.49472C10.7305 9.03273 10.64 8.47476 10.2747 8.10953L9.65726 7.49206C9.44299 7.2778 9.12606 7.20298 8.83859 7.2988L8.53135 7.40121C8.3425 7.46416 8.13611 7.37867 8.04709 7.20063L7.81036 6.72718C7.73628 6.57902 7.76532 6.40007 7.88245 6.28294C7.99958 6.16581 8.17853 6.13677 8.32669 6.21085L8.53627 6.31564C8.64735 6.37118 8.76984 6.4001 8.89404 6.4001H9.04464C9.59068 6.4001 9.97626 5.86514 9.80359 5.34712L9.74919 5.18392C9.69776 5.02963 9.74486 4.85957 9.86834 4.75373L11.0199 3.76667C12.3395 4.70978 13.1996 6.25449 13.1996 8.0001Z" fill="currentColor"/>
</svg>
