<svg width="24" height="24" viewBox="0 0 24 24" fill="none" xmlns="http://www.w3.org/2000/svg">
<path fill-rule="evenodd" clip-rule="evenodd" d="M9.94661 3.48832C11.1421 2.50389 12.8579 2.50389 14.0534 3.48832L19.0534 7.6055C19.8096 8.22818 20.25 9.16221 20.25 10.1503V17.9668C20.25 19.7859 18.7891 21.25 17 21.25H7C5.2109 21.25 3.75 19.7859 3.75 17.9668V10.1503C3.75 9.16221 4.1904 8.22819 4.94661 7.6055L9.94661 3.48832ZM15.0069 2.33037C13.2575 0.889874 10.7425 0.889878 8.99311 2.33037L3.99311 6.44755C2.88889 7.35681 2.25 8.71654 2.25 10.1503V17.9668C2.25 20.6027 4.37082 22.75 7 22.75H17C19.6292 22.75 21.75 20.6027 21.75 17.9668V10.1503C21.75 8.71654 21.1111 7.35681 20.0069 6.44755L15.0069 2.33037ZM10 17.25C9.58579 17.25 9.25 17.5858 9.25 18C9.25 18.4142 9.58579 18.75 10 18.75H14C14.4142 18.75 14.75 18.4142 14.75 18C14.75 17.5858 14.4142 17.25 14 17.25H10Z" fill="currentColor"/>
</svg>
