<svg width="101" height="24" viewBox="0 0 101 24" fill="none" xmlns="http://www.w3.org/2000/svg">
<g clip-path="url(#clip0_32468_14160)">
<path d="M35.4609 21.8193C34.6748 21.8193 34.0538 21.6753 33.5981 21.3854C33.1405 21.0954 32.8196 20.6902 32.6316 20.1679C32.4436 19.6456 32.3506 19.0311 32.3506 18.3225V14.5395C32.3506 13.8136 32.4436 13.1895 32.6316 12.6672C32.8196 12.1448 33.1424 11.7416 33.5981 11.4555C34.0538 11.1712 34.6767 11.0272 35.4609 11.0272C36.2451 11.0272 36.8299 11.154 37.261 11.4094C37.692 11.6648 37.9977 12.02 38.1762 12.4771C38.3547 12.9341 38.4458 13.4622 38.4458 14.0575V14.9639H36.2052V13.9154C36.2052 13.708 36.1938 13.5102 36.1729 13.3201C36.1521 13.13 36.0894 12.9725 35.9869 12.8477C35.8843 12.7229 35.7096 12.6595 35.4609 12.6595C35.2121 12.6595 35.045 12.7248 34.9292 12.8534C34.8134 12.9821 34.7412 13.1453 34.7108 13.3393C34.6805 13.5332 34.6653 13.7387 34.6653 13.9538V18.889C34.6653 19.1213 34.6843 19.3364 34.7222 19.5303C34.7602 19.7243 34.8381 19.8798 34.952 19.997C35.0659 20.1141 35.2349 20.1717 35.4571 20.1717C35.6963 20.1717 35.8672 20.1084 35.9698 19.9835C36.0723 19.8587 36.1369 19.6974 36.1615 19.4977C36.1862 19.2999 36.1995 19.0964 36.1995 18.889V17.7886H38.4401V18.695C38.4401 19.2903 38.3528 19.8241 38.1781 20.2946C38.0034 20.7651 37.6996 21.1357 37.2686 21.4084C36.8375 21.6811 36.2337 21.8155 35.4571 21.8155L35.4609 21.8193Z" fill="#FE5631"/>
<path d="M39.5469 21.6637V11.1711H41.6223V21.6637H39.5469Z" fill="#FE5631"/>
<path d="M44.157 21.7923C43.781 21.7923 43.4658 21.702 43.2095 21.5196C42.9531 21.3391 42.7613 21.1067 42.6322 20.8264C42.505 20.546 42.4404 20.258 42.4404 19.9642C42.4404 19.4975 42.5316 19.1058 42.7158 18.7851C42.8999 18.4663 43.1411 18.1975 43.4392 17.9824C43.7373 17.7673 44.0677 17.583 44.4247 17.4313C44.7836 17.2796 45.1368 17.1452 45.4881 17.0242V16.2733C45.4881 16.1447 45.4748 16.0295 45.4501 15.9296C45.4254 15.8297 45.3817 15.7529 45.3229 15.6972C45.2621 15.6416 45.1729 15.6127 45.0532 15.6127C44.9336 15.6127 44.8425 15.6377 44.7779 15.6896C44.7133 15.7414 44.6697 15.8125 44.6431 15.9027C44.6165 15.993 44.5994 16.0947 44.5918 16.208L44.5405 16.7515L42.5942 16.6747C42.636 15.776 42.8734 15.1135 43.3044 14.6872C43.7354 14.2589 44.3829 14.0458 45.245 14.0458C45.9969 14.0458 46.5571 14.2551 46.9293 14.6737C47.3014 15.0923 47.4856 15.6339 47.4856 16.3002V19.7971C47.4856 20.1082 47.4913 20.3809 47.5046 20.6132C47.5179 20.8456 47.535 21.0491 47.5559 21.222C47.5768 21.3948 47.5958 21.5407 47.6129 21.6617H45.7425C45.7178 21.4639 45.6874 21.2469 45.6533 21.0146C45.6191 20.7822 45.5925 20.644 45.5773 20.5998C45.4919 20.9109 45.3324 21.1874 45.0969 21.4294C44.8614 21.6713 44.5481 21.7923 44.1551 21.7923H44.157ZM44.8994 20.3674C44.9849 20.3674 45.0627 20.3501 45.1368 20.3156C45.2089 20.281 45.2754 20.233 45.3362 20.1735C45.395 20.1139 45.4463 20.0525 45.49 19.993V17.9459C45.3191 18.0496 45.1615 18.1552 45.0152 18.2628C44.869 18.3703 44.7456 18.4894 44.6431 18.618C44.5405 18.7467 44.4608 18.8888 44.4057 19.0386C44.3507 19.1903 44.3222 19.3612 44.3222 19.5494C44.3222 19.8009 44.3734 19.9987 44.476 20.1447C44.5785 20.2925 44.719 20.3655 44.8994 20.3655V20.3674Z" fill="#FE5631"/>
<path d="M49.2804 21.6637L48.1924 14.1764H49.9336L50.471 18.4241L51.0482 14.1764H52.5597L53.0591 18.5278L53.6876 14.1764H55.3016L54.2003 21.6637H52.4078L51.7679 17.4544L51.0501 21.6637H49.2823H49.2804Z" fill="#FE5631"/>
<path d="M56.209 21.6637V11.1711H60.6921V12.7381H58.5028V15.3805H60.4111V16.9993H58.5028V21.6618H56.2109L56.209 21.6637Z" fill="#FE5631"/>
<path d="M61.5508 21.6637V14.1764H63.6376V15.4208C63.8769 14.9887 64.1161 14.6584 64.3554 14.4299C64.5946 14.2014 64.8851 14.0862 65.2269 14.0862C65.2953 14.0862 65.3541 14.0881 65.4054 14.0919C65.4567 14.0958 65.5042 14.1073 65.5459 14.1246V16.2235C65.451 16.1812 65.3466 16.1428 65.2326 16.114C65.1168 16.0833 64.9953 16.0679 64.868 16.0679C64.6288 16.0679 64.4066 16.1332 64.2016 16.2619C63.9965 16.3905 63.8085 16.5691 63.6376 16.7938V21.6637H61.5508Z" fill="#FE5631"/>
<path d="M66.3018 12.907V11.4437H68.4019V12.907H66.3018ZM66.315 21.6636V14.1763H68.4038V21.6636H66.315Z" fill="#FE5631"/>
<path d="M71.9889 21.7923C71.4516 21.7923 70.9901 21.6944 70.6066 21.5004C70.223 21.3065 69.9287 21.0203 69.7236 20.6459C69.5186 20.2695 69.416 19.8182 69.416 19.2921V16.546C69.416 16.0103 69.5186 15.5571 69.7236 15.1864C69.9287 14.8158 70.2249 14.5316 70.6142 14.3377C71.0034 14.1437 71.4611 14.0458 71.9908 14.0458C72.5206 14.0458 72.9915 14.1418 73.3542 14.33C73.7169 14.5201 73.9903 14.8005 74.1745 15.1711C74.3587 15.5417 74.4498 16.0006 74.4498 16.5441V18.0458H71.4781V19.4841C71.4781 19.6742 71.499 19.8297 71.5427 19.9507C71.5845 20.0717 71.6452 20.1581 71.7212 20.21C71.7971 20.2618 71.8883 20.2887 71.9908 20.2887C72.0934 20.2887 72.1845 20.2657 72.2662 20.2176C72.3478 20.1696 72.4105 20.0947 72.4579 19.991C72.5054 19.8874 72.5282 19.7452 72.5282 19.5628V18.7736H74.4498V19.4994C74.4498 20.2599 74.2315 20.8321 73.7966 21.2162C73.3618 21.6003 72.7599 21.7923 71.9908 21.7923H71.9889ZM71.4763 17.0645H72.5263V16.3137C72.5263 16.1159 72.5035 15.9603 72.456 15.847C72.4086 15.7356 72.3459 15.6569 72.2643 15.6147C72.1826 15.5724 72.0877 15.5494 71.9756 15.5494C71.8731 15.5494 71.7858 15.5743 71.7136 15.6262C71.6414 15.678 71.5826 15.7664 71.5408 15.8912C71.4971 16.016 71.4763 16.1965 71.4763 16.4289V17.0645Z" fill="#FE5631"/>
<path d="M75.459 21.6637V14.1764H77.5477V14.9272C77.8211 14.6507 78.1041 14.4356 78.4003 14.2801C78.6946 14.1245 79.0041 14.0477 79.3288 14.0477C79.6364 14.0477 79.8909 14.1226 80.0902 14.2743C80.2915 14.426 80.4415 14.6334 80.5441 14.8965C80.6466 15.1596 80.6979 15.4592 80.6979 15.7971V21.6656H78.6224V16.0967C78.6224 15.9162 78.5921 15.7779 78.5332 15.6819C78.4724 15.5878 78.3623 15.5398 78.2009 15.5398C78.1155 15.5398 78.0148 15.5629 77.9009 15.6109C77.7851 15.6589 77.6673 15.7261 77.5496 15.8125V21.6675H75.4609L75.459 21.6637Z" fill="#FE5631"/>
<path d="M83.4255 21.7924C82.8787 21.7924 82.4571 21.5984 82.1571 21.2105C81.859 20.8226 81.709 20.2485 81.709 19.488V16.3925C81.709 15.9259 81.7735 15.5188 81.9008 15.1693C82.028 14.8198 82.2217 14.5452 82.478 14.3474C82.7344 14.1496 83.0496 14.0497 83.4255 14.0497C83.699 14.0497 83.9591 14.1035 84.2059 14.211C84.4528 14.3186 84.6807 14.4645 84.8838 14.645V11.1731H86.9707V21.6657H84.8838V21.0819C84.6541 21.3066 84.4148 21.4813 84.1661 21.6061C83.9173 21.7309 83.6705 21.7943 83.4236 21.7943L83.4255 21.7924ZM84.3351 20.4463C84.4034 20.4463 84.487 20.429 84.5857 20.3944C84.6845 20.3598 84.7851 20.3118 84.8876 20.2523V15.5245C84.8022 15.4823 84.7129 15.4419 84.618 15.4074C84.5231 15.3728 84.4338 15.3555 84.3484 15.3555C84.1604 15.3555 84.0237 15.4362 83.9382 15.5956C83.8528 15.7549 83.811 15.947 83.811 16.1717V19.6167C83.811 19.7722 83.8281 19.9124 83.8623 20.0372C83.8964 20.1621 83.9515 20.2619 84.0294 20.3349C84.1072 20.4079 84.2078 20.4443 84.337 20.4443L84.3351 20.4463Z" fill="#FE5631"/>
<path d="M88.0752 21.6637V19.6685H90.0481V21.6637H88.0752Z" fill="white"/>
<path d="M92.4558 21.7923C92.0798 21.7923 91.7646 21.702 91.5083 21.5196C91.2519 21.3391 91.0602 21.1067 90.931 20.8264C90.8038 20.546 90.7393 20.258 90.7393 19.9642C90.7393 19.4975 90.8304 19.1058 91.0146 18.7851C91.1988 18.4663 91.4399 18.1975 91.738 17.9824C92.0362 17.7673 92.3666 17.583 92.7235 17.4313C93.0824 17.2796 93.4356 17.1452 93.7869 17.0242V16.2733C93.7869 16.1447 93.7736 16.0295 93.7489 15.9296C93.7242 15.8297 93.6805 15.7529 93.6217 15.6972C93.5609 15.6416 93.4717 15.6127 93.3521 15.6127C93.2324 15.6127 93.1413 15.6377 93.0767 15.6896C93.0122 15.7414 92.9685 15.8125 92.9419 15.9027C92.9153 15.993 92.8982 16.0947 92.8906 16.208L92.8394 16.7515L90.8931 16.6747C90.9348 15.776 91.1722 15.1135 91.6032 14.6872C92.0343 14.2589 92.6818 14.0458 93.5438 14.0458C94.2958 14.0458 94.8559 14.2551 95.2281 14.6737C95.6003 15.0923 95.7845 15.6339 95.7845 16.3002V19.7971C95.7845 20.1082 95.7902 20.3809 95.8034 20.6132C95.8167 20.8456 95.8338 21.0491 95.8547 21.222C95.8756 21.3948 95.8946 21.5407 95.9117 21.6617H94.0413C94.0166 21.4639 93.9863 21.2469 93.9521 21.0146C93.9179 20.7822 93.8913 20.644 93.8761 20.5998C93.7907 20.9109 93.6312 21.1874 93.3957 21.4294C93.1603 21.6713 92.847 21.7923 92.4539 21.7923H92.4558ZM93.1982 20.3674C93.2837 20.3674 93.3615 20.3501 93.4356 20.3156C93.5078 20.281 93.5742 20.233 93.635 20.1735C93.6938 20.1139 93.7451 20.0525 93.7888 19.993V17.9459C93.6179 18.0496 93.4603 18.1552 93.3141 18.2628C93.1679 18.3703 93.0444 18.4894 92.9419 18.618C92.8394 18.7467 92.7596 18.8888 92.7046 19.0386C92.6495 19.1903 92.621 19.3612 92.621 19.5494C92.621 19.8009 92.6723 19.9987 92.7748 20.1447C92.8773 20.2925 93.0179 20.3655 93.1982 20.3655V20.3674Z" fill="white"/>
<path d="M96.8994 12.907V11.4437H98.9995V12.907H96.8994ZM96.9127 21.6636V14.1763H99.0014V21.6636H96.9127Z" fill="white"/>
<path d="M28.4753 12.8728C27.8943 15.4268 25.3214 17.0034 24.7119 17.3471C24.6853 16.9515 24.6492 16.6136 24.6169 16.3582C25.8606 15.6054 25.986 14.3668 25.986 14.3668C25.6347 14.1613 24.0226 13.2146 23.5839 10.2689C23.2972 8.33704 23.6352 7.40185 23.9011 6.98706C23.9827 6.86032 24.1783 6.89873 24.2068 7.04659C24.465 8.40425 25.6138 8.94386 26.0429 8.19878C26.3468 7.67261 26.2347 6.92753 26.1208 6.47434C26.0809 6.3188 26.2575 6.20166 26.3847 6.29575C27.6493 7.23094 29.271 9.37401 28.4772 12.8728H28.4753Z" fill="white"/>
<path d="M27.2463 7.9877C27.4723 8.6118 28.0514 10.3631 27.9394 11.6305C27.9356 11.6689 27.9869 11.6843 28.0039 11.6497C28.2204 11.2349 28.6951 9.90609 27.3071 7.95506C27.2843 7.92241 27.233 7.9493 27.2463 7.9877Z" fill="#FE5631"/>
<path d="M5.13874 13.1782C5.13874 13.1782 5.04 15.3155 7.21037 16.6136C7.11923 16.9266 7.0034 17.4105 6.94263 18.0058C6.46223 17.7754 2.32657 15.6554 2.02276 10.6165C1.72464 5.64671 4.29756 3.04853 6.22108 2.02885C6.41476 1.92515 6.63123 2.12295 6.54768 2.3265C6.29893 2.92563 5.99702 3.92227 6.30653 4.70768C6.74516 5.81762 8.42942 5.31642 9.05604 3.50749C9.12439 3.3097 9.39972 3.29817 9.48517 3.4902C9.7662 4.1143 10.0415 5.4662 9.25731 8.05478C8.06295 12.0048 5.66092 12.9688 5.13684 13.1782H5.13874Z" fill="#FE5631"/>
<path d="M6.19525 10.9776C6.763 10.2575 8.28397 8.21234 8.68842 6.49558C8.69981 6.44373 8.77387 6.44565 8.78146 6.4975C8.8859 7.13888 8.93147 9.0976 6.25981 11.0467C6.21424 11.0794 6.15917 11.0217 6.19525 10.9776Z" fill="white"/>
<path d="M11.8251 12.6827C12.9587 12.6827 13.8777 11.7533 13.8777 10.6069C13.8777 9.4604 12.9587 8.53101 11.8251 8.53101C10.6915 8.53101 9.77246 9.4604 9.77246 10.6069C9.77246 11.7533 10.6915 12.6827 11.8251 12.6827Z" fill="#FE5631"/>
<path d="M20.1112 10.4129C21.2449 10.4129 22.1639 9.48354 22.1639 8.33708C22.1639 7.19062 21.2449 6.26123 20.1112 6.26123C18.9776 6.26123 18.0586 7.19062 18.0586 8.33708C18.0586 9.48354 18.9776 10.4129 20.1112 10.4129Z" fill="white"/>
<path d="M22.1326 22.0001H10.1548C7.51922 22.0001 7.61227 20.1105 7.85722 17.9271C8.10216 15.7418 8.89968 13.6352 11.8239 13.6352C13.2081 13.6352 14.1993 14.4763 14.8582 15.3596C15.0253 15.5843 15.1715 15.8128 15.2968 16.0298C15.3215 16.0701 15.3443 16.1124 15.3671 16.1527C15.3956 16.2026 15.4279 16.2449 15.4658 16.2795C15.7184 16.5099 16.1589 16.4043 16.252 16.0356C16.9963 13.0745 17.5204 11.496 20.3098 11.496C23.496 11.496 24.0619 15.7245 24.2764 18.6837C24.4872 21.6025 23.2226 21.9885 22.1307 21.9981L22.1326 22.0001Z" fill="#FE5631"/>
<path d="M22.1337 22.0001C17.9676 21.9828 16.9498 18.5435 15.4688 16.2814C15.7213 16.5118 16.1618 16.4062 16.2549 16.0375C16.9992 13.0764 17.5233 11.4979 20.3127 11.4979C23.4989 11.4979 24.0648 15.7264 24.2793 18.6856C24.4901 21.6045 23.2255 21.9905 22.1337 22.0001Z" fill="white"/>
</g>
<defs>
<clipPath id="clip0_32468_14160">
<rect width="97" height="20" fill="white" transform="translate(2 2)"/>
</clipPath>
</defs>
</svg>
