<svg width="48" height="48" viewBox="0 0 48 48" fill="none" xmlns="http://www.w3.org/2000/svg">
<g clip-path="url(#clip0_32560_11762)">
<path d="M45.3091 25.4C44.3691 29.5 40.1891 32.03 39.1991 32.58C39.1591 31.95 39.0991 31.4 39.0391 30.99C41.0591 29.78 41.2591 27.79 41.2591 27.79C40.6891 27.46 38.0691 25.94 37.3591 21.21C36.8991 18.11 37.4391 16.61 37.8791 15.94C38.0091 15.74 38.3291 15.8 38.3691 16.04C38.7891 18.22 40.6491 19.09 41.3491 17.89C41.8391 17.04 41.6591 15.85 41.4791 15.12C41.4191 14.87 41.6991 14.68 41.9091 14.83C43.9591 16.33 46.5991 19.77 45.3091 25.39V25.4Z" fill="white"/>
<path d="M43.3196 17.56C43.6896 18.56 44.6296 21.37 44.4496 23.41C44.4496 23.47 44.5296 23.5 44.5496 23.44C44.8996 22.77 45.6696 20.64 43.4196 17.51C43.3796 17.46 43.2996 17.51 43.3196 17.56Z" fill="#FE5631"/>
<path d="M7.42993 25.89C7.42993 25.89 7.26993 29.32 10.7899 31.4C10.6399 31.9 10.4599 32.68 10.3599 33.63C9.57993 33.26 2.86993 29.86 2.36993 21.77C1.88993 13.8 6.06993 9.63001 9.18993 8.00001C9.49993 7.83001 9.85993 8.15001 9.71993 8.48001C9.31993 9.44001 8.81993 11.04 9.32993 12.3C10.0399 14.08 12.7699 13.28 13.7899 10.37C13.8999 10.05 14.3499 10.04 14.4899 10.34C14.9499 11.34 15.3899 13.51 14.1199 17.67C12.1799 24.01 8.27993 25.56 7.42993 25.89Z" fill="#FE5631"/>
<path d="M9.14925 22.36C10.0692 21.2 12.5392 17.92 13.1992 15.17C13.2192 15.09 13.3392 15.09 13.3492 15.17C13.5192 16.2 13.5892 19.34 9.25925 22.47C9.18925 22.52 9.09925 22.43 9.14925 22.36Z" fill="white"/>
<path d="M18.289 25.0999C20.1281 25.0999 21.619 23.609 21.619 21.7699C21.619 19.9308 20.1281 18.4399 18.289 18.4399C16.4499 18.4399 14.959 19.9308 14.959 21.7699C14.959 23.609 16.4499 25.0999 18.289 25.0999Z" fill="#FE5631"/>
<path d="M31.7402 21.4499C33.5793 21.4499 35.0702 19.959 35.0702 18.1199C35.0702 16.2808 33.5793 14.7899 31.7402 14.7899C29.901 14.7899 28.4102 16.2808 28.4102 18.1199C28.4102 19.959 29.901 21.4499 31.7402 21.4499Z" fill="white"/>
<path d="M35.02 40.0499H15.58C11.3 40.0499 11.45 37.0199 11.85 33.5099C12.25 29.9999 13.54 26.6199 18.29 26.6199C20.54 26.6199 22.15 27.9699 23.21 29.3899C23.48 29.7499 23.72 30.1199 23.92 30.4699C23.96 30.5399 24 30.5999 24.03 30.6699C24.08 30.7499 24.13 30.8199 24.19 30.8699C24.6 31.2399 25.31 31.0699 25.46 30.4799C26.67 25.7299 27.52 23.1899 32.05 23.1899C37.22 23.1899 38.14 29.9799 38.49 34.7299C38.83 39.4199 36.78 40.0299 35.01 40.0499H35.02Z" fill="#FE5631"/>
<path d="M35.0192 40.0499C28.2592 40.0199 26.6092 34.4999 24.1992 30.8699C24.6092 31.2399 25.3192 31.0699 25.4692 30.4799C26.6792 25.7299 27.5292 23.1899 32.0592 23.1899C37.2292 23.1899 38.1492 29.9799 38.4992 34.7299C38.8392 39.4199 36.7892 40.0299 35.0192 40.0499Z" fill="white"/>
</g>
<defs>
<clipPath id="clip0_32560_11762">
<rect width="43.32" height="32.1" fill="white" transform="translate(2.33984 7.94995)"/>
</clipPath>
</defs>
</svg>
