<svg width="1em" height="1em" viewBox="0 0 16 16" fill="none" xmlns="http://www.w3.org/2000/svg">
<path d="M14.8329 7.99996C14.8198 7.53014 14.6766 7.07269 14.4184 6.67923C14.1609 6.2865 13.7987 5.97232 13.3726 5.77305C13.5347 5.33159 13.5689 4.85378 13.4744 4.39341C13.3791 3.93232 13.1566 3.50759 12.8329 3.1665C12.4911 2.84287 12.0671 2.62105 11.606 2.52505C11.1457 2.4305 10.6678 2.46469 10.2264 2.62687C10.0278 2.19996 9.71438 1.83705 9.32092 1.57959C8.92747 1.32214 8.47002 1.17814 7.99947 1.1665C7.52965 1.17887 7.07365 1.32141 6.68092 1.57959C6.2882 1.83778 5.9762 2.20069 5.77911 2.62687C5.33692 2.46469 4.85765 2.42905 4.39583 2.52505C3.93402 2.61959 3.50856 2.84214 3.16674 3.1665C2.84311 3.50832 2.62202 3.93378 2.5282 4.39414C2.43365 4.8545 2.47002 5.33232 2.63292 5.77305C2.20602 5.97232 1.84238 6.28578 1.58347 6.6785C1.32456 7.07123 1.17983 7.52941 1.16602 7.99996C1.18056 8.4705 1.32456 8.92796 1.58347 9.32141C1.84238 9.71414 2.20602 10.0283 2.63292 10.2269C2.47002 10.6676 2.43365 11.1454 2.5282 11.6058C2.62274 12.0669 2.84311 12.4916 3.16602 12.8334C3.50783 13.1556 3.93256 13.3767 4.39292 13.472C4.85329 13.568 5.33111 13.533 5.77256 13.373C5.97183 13.7992 6.28529 14.1614 6.67874 14.4196C7.07147 14.677 7.52965 14.8203 7.99947 14.8334C8.47002 14.8218 8.92747 14.6785 9.32092 14.421C9.71438 14.1636 10.0278 13.8 10.2264 13.3738C10.6657 13.5476 11.1471 13.589 11.6104 13.493C12.0729 13.397 12.4977 13.168 12.8322 12.8334C13.1667 12.4989 13.3966 12.0741 13.4926 11.6109C13.5886 11.1476 13.5471 10.6661 13.3726 10.2269C13.7987 10.0276 14.1609 9.71414 14.4191 9.32069C14.6766 8.92796 14.8198 8.46978 14.8329 7.99996ZM7.02638 10.8L4.53256 8.30687L5.47292 7.35996L6.97983 8.86687L10.1798 5.38032L11.1595 6.2865L7.02638 10.8Z" fill="currentColor"/>
</svg>
